<mxfile host="65bd71144e" pages="1">
    <diagram id="lgG7Gm4zSU_ZxN9fSDpg" name="Page-1">
        <mxGraphModel dx="1054" dy="624" grid="1" gridSize="10" guides="1" tooltips="1" connect="1" arrows="1" fold="1" page="1" pageScale="1" pageWidth="850" pageHeight="1100" math="0" shadow="0">
            <root>
                <mxCell id="0"/>
                <mxCell id="1" parent="0"/>
                <mxCell id="3" value="&lt;font style=&quot;font-size: 24px&quot; face=&quot;Comic Sans MS&quot;&gt;MPD&lt;/font&gt;" style="text;html=1;align=center;verticalAlign=middle;resizable=0;points=[];autosize=1;" parent="1" vertex="1">
                    <mxGeometry x="390" y="90" width="70" height="30" as="geometry"/>
                </mxCell>
                <mxCell id="4" value="&lt;font style=&quot;font-size: 24px&quot; face=&quot;Comic Sans MS&quot; color=&quot;#66ffff&quot;&gt;SUGAR METER&lt;/font&gt;" style="text;html=1;align=center;verticalAlign=middle;resizable=0;points=[];autosize=1;" parent="1" vertex="1">
                    <mxGeometry x="330" y="15" width="190" height="30" as="geometry"/>
                </mxCell>
                <mxCell id="25" value="client" style="swimlane;childLayout=stackLayout;horizontal=1;startSize=30;horizontalStack=0;rounded=1;fontSize=15;fontStyle=1;strokeWidth=2;resizeParent=0;resizeLast=1;shadow=0;dashed=0;align=center;fontColor=#66FFFF;" parent="1" vertex="1">
                    <mxGeometry x="45" y="160" width="200" height="160" as="geometry"/>
                </mxCell>
                <mxCell id="26" value="idproduct : int&#10;username : varchar(50)&#10;mail          : varchar(80)&#10;pwd          : varchar(255)&#10;" style="align=left;strokeColor=none;fillColor=none;spacingLeft=4;fontSize=14;verticalAlign=top;resizable=0;rotatable=0;part=1;fontFamily=Comic Sans MS;" parent="25" vertex="1">
                    <mxGeometry y="30" width="200" height="130" as="geometry"/>
                </mxCell>
                <mxCell id="27" value="Consumption" style="swimlane;childLayout=stackLayout;horizontal=1;startSize=30;horizontalStack=0;rounded=1;fontSize=15;fontStyle=1;strokeWidth=2;resizeParent=0;resizeLast=1;shadow=0;dashed=0;align=center;fontColor=#66FFFF;" parent="1" vertex="1">
                    <mxGeometry x="325" y="160" width="200" height="160" as="geometry"/>
                </mxCell>
                <mxCell id="28" value="idconsumption    : int&#10;productquantity : int&#10;sugarquantity     : int&#10;dtconsumption   : datetime&#10;idclient              : int (fk)&#10;idproduct           : int (fk)&#10;" style="align=left;strokeColor=none;fillColor=none;spacingLeft=4;fontSize=14;verticalAlign=top;resizable=0;rotatable=0;part=1;fontFamily=Comic Sans MS;" parent="27" vertex="1">
                    <mxGeometry y="30" width="200" height="130" as="geometry"/>
                </mxCell>
                <mxCell id="29" value="Consumption" style="swimlane;childLayout=stackLayout;horizontal=1;startSize=30;horizontalStack=0;rounded=1;fontSize=15;fontStyle=1;strokeWidth=2;resizeParent=0;resizeLast=1;shadow=0;dashed=0;align=center;fontColor=#66FFFF;" parent="1" vertex="1">
                    <mxGeometry x="605" y="160" width="200" height="160" as="geometry"/>
                </mxCell>
                <mxCell id="30" value="idproduct       : int&#10;name               : int&#10;picture            : varchar(255)&#10;sugarthousand : int&#10;codebar           : char(13)&#10;update             : datetime&#10;&#10;" style="align=left;strokeColor=none;fillColor=none;spacingLeft=4;fontSize=14;verticalAlign=top;resizable=0;rotatable=0;part=1;fontFamily=Comic Sans MS;" parent="29" vertex="1">
                    <mxGeometry y="30" width="200" height="130" as="geometry"/>
                </mxCell>
                <mxCell id="32" value="" style="edgeStyle=entityRelationEdgeStyle;fontSize=12;html=1;endArrow=ERzeroToMany;endFill=1;entryX=0.002;entryY=0.195;entryDx=0;entryDy=0;entryPerimeter=0;exitX=1.013;exitY=0.642;exitDx=0;exitDy=0;exitPerimeter=0;" parent="1" source="26" target="27" edge="1">
                    <mxGeometry width="100" height="100" relative="1" as="geometry">
                        <mxPoint x="290" y="330" as="sourcePoint"/>
                        <mxPoint x="390" y="230" as="targetPoint"/>
                    </mxGeometry>
                </mxCell>
                <mxCell id="33" value="" style="edgeStyle=entityRelationEdgeStyle;fontSize=12;html=1;endArrow=ERoneToMany;exitX=-0.012;exitY=0.595;exitDx=0;exitDy=0;exitPerimeter=0;entryX=1;entryY=0;entryDx=0;entryDy=0;" parent="1" source="30" target="28" edge="1">
                    <mxGeometry width="100" height="100" relative="1" as="geometry">
                        <mxPoint x="390" y="300" as="sourcePoint"/>
                        <mxPoint x="600" y="220" as="targetPoint"/>
                    </mxGeometry>
                </mxCell>
                <mxCell id="34" value="&lt;br&gt;&lt;span style=&quot;color: rgba(0 , 0 , 0 , 0) ; font-family: monospace ; font-size: 0px&quot;&gt;%3CmxGraphModel%3E%3Croot%3E%3CmxCell%20id%3D%220%22%2F%3E%3CmxCell%20id%3D%221%22%20parent%3D%220%22%2F%3E%3CmxCell%20id%3D%222%22%20value%3D%22%26lt%3Bfont%20face%3D%26quot%3BComic%20Sans%20MS%26quot%3B%26gt%3B%26lt%3Bbr%26gt%3B%26lt%3Bspan%20style%3D%26quot%3Bfont-style%3A%20normal%20%3B%20letter-spacing%3A%20normal%20%3B%20text-align%3A%20center%20%3B%20text-indent%3A%200px%20%3B%20text-transform%3A%20none%20%3B%20word-spacing%3A%200px%20%3B%20background-color%3A%20rgb(42%20%2C%2042%20%2C%2042)%20%3B%20display%3A%20inline%20%3B%20float%3A%20none%26quot%3B%26gt%3B%26lt%3Bfont%20color%3D%26quot%3B%2366ffff%26quot%3B%20style%3D%26quot%3Bfont-size%3A%2014px%26quot%3B%26gt%3B%26lt%3Bb%26gt%3BUSER%26amp%3Bnbsp%3B%26lt%3B%2Fb%26gt%3B%26lt%3B%2Ffont%26gt%3B%26lt%3B%2Fspan%26gt%3B%26lt%3Bbr%20style%3D%26quot%3Bcolor%3A%20rgb(240%20%2C%20240%20%2C%20240)%20%3B%20font-size%3A%2013px%20%3B%20font-style%3A%20normal%20%3B%20font-weight%3A%20400%20%3B%20letter-spacing%3A%20normal%20%3B%20text-align%3A%20center%20%3B%20text-indent%3A%200px%20%3B%20text-transform%3A%20none%20%3B%20word-spacing%3A%200px%20%3B%20background-color%3A%20rgb(42%20%2C%2042%20%2C%2042)%26quot%3B%26gt%3B%26lt%3Bspan%20style%3D%26quot%3Bcolor%3A%20rgb(240%20%2C%20240%20%2C%20240)%20%3B%20font-style%3A%20normal%20%3B%20font-weight%3A%20400%20%3B%20letter-spacing%3A%20normal%20%3B%20text-align%3A%20center%20%3B%20text-indent%3A%200px%20%3B%20text-transform%3A%20none%20%3B%20word-spacing%3A%200px%20%3B%20background-color%3A%20rgb(42%20%2C%2042%20%2C%2042)%20%3B%20font-size%3A%2012px%26quot%3B%26gt%3BUn%20user%20%C3%A0%20plusieurs%26amp%3Bnbsp%3B%26lt%3B%2Fspan%26gt%3B%26lt%3Bspan%20style%3D%26quot%3Bcolor%3A%20rgb(240%20%2C%20240%20%2C%20240)%20%3B%20font-style%3A%20normal%20%3B%20font-weight%3A%20400%20%3B%20letter-spacing%3A%20normal%20%3B%20text-align%3A%20center%20%3B%20text-indent%3A%200px%20%3B%20text-transform%3A%20none%20%3B%20word-spacing%3A%200px%20%3B%20background-color%3A%20rgb(42%20%2C%2042%20%2C%2042)%20%3B%20font-size%3A%2012px%26quot%3B%26gt%3Bconso%26lt%3B%2Fspan%26gt%3B%26lt%3Bbr%20style%3D%26quot%3Bcolor%3A%20rgb(240%20%2C%20240%20%2C%20240)%20%3B%20font-style%3A%20normal%20%3B%20font-weight%3A%20400%20%3B%20letter-spacing%3A%20normal%20%3B%20text-align%3A%20center%20%3B%20text-indent%3A%200px%20%3B%20text-transform%3A%20none%20%3B%20word-spacing%3A%200px%20%3B%20background-color%3A%20rgb(42%20%2C%2042%20%2C%2042)%20%3B%20font-size%3A%2012px%26quot%3B%26gt%3B%26lt%3Bspan%20style%3D%26quot%3Bcolor%3A%20rgb(240%20%2C%20240%20%2C%20240)%20%3B%20font-style%3A%20normal%20%3B%20font-weight%3A%20400%20%3B%20letter-spacing%3A%20normal%20%3B%20text-align%3A%20center%20%3B%20text-indent%3A%200px%20%3B%20text-transform%3A%20none%20%3B%20word-spacing%3A%200px%20%3B%20background-color%3A%20rgb(42%20%2C%2042%20%2C%2042)%20%3B%20font-size%3A%2012px%26quot%3B%26gt%3BUne%20conso%26amp%3Bnbsp%3B%26lt%3B%2Fspan%26gt%3B%26lt%3Bspan%20style%3D%26quot%3Bcolor%3A%20rgb(240%20%2C%20240%20%2C%20240)%20%3B%20font-style%3A%20normal%20%3B%20font-weight%3A%20400%20%3B%20letter-spacing%3A%20normal%20%3B%20text-align%3A%20center%20%3B%20text-indent%3A%200px%20%3B%20text-transform%3A%20none%20%3B%20word-spacing%3A%200px%20%3B%20background-color%3A%20rgb(42%20%2C%2042%20%2C%2042)%20%3B%20font-size%3A%2012px%26quot%3B%26gt%3B%C3%A0%20un%20seul%20user%26lt%3B%2Fspan%26gt%3B%26lt%3Bbr%20style%3D%26quot%3Bcolor%3A%20rgb(240%20%2C%20240%20%2C%20240)%20%3B%20font-style%3A%20normal%20%3B%20font-weight%3A%20400%20%3B%20letter-spacing%3A%20normal%20%3B%20text-align%3A%20center%20%3B%20text-indent%3A%200px%20%3B%20text-transform%3A%20none%20%3B%20word-spacing%3A%200px%20%3B%20background-color%3A%20rgb(42%20%2C%2042%20%2C%2042)%20%3B%20font-size%3A%2012px%26quot%3B%26gt%3B%26lt%3Bspan%20style%3D%26quot%3Bcolor%3A%20rgb(240%20%2C%20240%20%2C%20240)%20%3B%20font-style%3A%20normal%20%3B%20font-weight%3A%20400%20%3B%20letter-spacing%3A%20normal%20%3B%20text-align%3A%20center%20%3B%20text-indent%3A%200px%20%3B%20text-transform%3A%20none%20%3B%20word-spacing%3A%200px%20%3B%20background-color%3A%20rgb(42%20%2C%2042%20%2C%2042)%20%3B%20font-size%3A%2012px%26quot%3B%26gt%3B%26amp%3Bnbsp%3B%26lt%3B%2Fspan%26gt%3B%26lt%3B%2Ffont%26gt%3B%22%20style%3D%22shape%3Dext%3Bdouble%3D1%3Brounded%3D0%3BwhiteSpace%3Dwrap%3Bhtml%3D1%3BfontSize%3D13%3B%22%20vertex%3D%221%22%20parent%3D%221%22%3E%3CmxGeometry%20x%3D%2250%22%20y%3D%22480%22%20width%3D%22210%22%20height%3D%2280%22%20as%3D%22geometry%22%2F%3E%3C%2FmxCell%3E%3CmxCell%20id%3D%223%22%20value%3D%22%26lt%3Bfont%20face%3D%26quot%3BComic%20Sans%20MS%26quot%3B%26gt%3B%26lt%3Bfont%20color%3D%26quot%3B%2366ffff%26quot%3B%20style%3D%26quot%3Bfont-size%3A%2014px%26quot%3B%26gt%3B%26lt%3Bb%26gt%3BCONSUMPTION%26lt%3B%2Fb%26gt%3B%26lt%3B%2Ffont%26gt%3B%26lt%3Bbr%26gt%3B%26lt%3Bspan%20style%3D%26quot%3Bfont-size%3A%2012px%26quot%3B%26gt%3BUne%20consommation%20n'a%20qu'un%20seul%26amp%3Bnbsp%3B%26lt%3B%2Fspan%26gt%3B%26lt%3Bspan%20style%3D%26quot%3Bfont-size%3A%2012px%26quot%3B%26gt%3Bproduit%26lt%3B%2Fspan%26gt%3B%26lt%3Bbr%20style%3D%26quot%3Bfont-size%3A%2012px%26quot%3B%26gt%3B%26lt%3Bspan%20style%3D%26quot%3Bfont-size%3A%2012px%26quot%3B%26gt%3BUn%20produit%20peut%20avoir%26amp%3Bnbsp%3B%26lt%3B%2Fspan%26gt%3B%26lt%3Bspan%20style%3D%26quot%3Bfont-size%3A%2012px%26quot%3B%26gt%3Bplusieurs%20consommations%26lt%3B%2Fspan%26gt%3B%26lt%3B%2Ffont%26gt%3B%22%20style%3D%22shape%3Dext%3Bdouble%3D1%3Brounded%3D0%3BwhiteSpace%3Dwrap%3Bhtml%3D1%3BfontSize%3D13%3B%22%20vertex%3D%221%22%20parent%3D%221%22%3E%3CmxGeometry%20x%3D%22290.67%22%20y%3D%22480%22%20width%3D%22280%22%20height%3D%2280%22%20as%3D%22geometry%22%2F%3E%3C%2FmxCell%3E%3CmxCell%20id%3D%224%22%20value%3D%22%26lt%3Bfont%20face%3D%26quot%3BComic%20Sans%20MS%26quot%3B%26gt%3B%26lt%3Bfont%20color%3D%26quot%3B%2366ffff%26quot%3B%20style%3D%26quot%3Bfont-size%3A%2014px%26quot%3B%26gt%3B%26lt%3Bb%26gt%3BPRODUCT%26amp%3Bnbsp%3B%26lt%3B%2Fb%26gt%3B%26lt%3B%2Ffont%26gt%3B%26lt%3Bbr%26gt%3B%26lt%3Bspan%20style%3D%26quot%3Bfont-size%3A%2012px%26quot%3B%26gt%3BUn%20user%20peut%20avoir%20plusieurs%20produits%26lt%3B%2Fspan%26gt%3B%26lt%3Bbr%20style%3D%26quot%3Bfont-size%3A%2012px%26quot%3B%26gt%3B%26lt%3Bspan%20style%3D%26quot%3Bfont-size%3A%2012px%26quot%3B%26gt%3BUn%20produit%20peut%20avoir%20plusieurs%20users%26lt%3B%2Fspan%26gt%3B%26lt%3B%2Ffont%26gt%3B%22%20style%3D%22shape%3Dext%3Bdouble%3D1%3Brounded%3D0%3BwhiteSpace%3Dwrap%3Bhtml%3D1%3BfontSize%3D13%3B%22%20vertex%3D%221%22%20parent%3D%221%22%3E%3CmxGeometry%20x%3D%22600%22%20y%3D%22480%22%20width%3D%22230%22%20height%3D%2280%22%20as%3D%22geometry%22%2F%3E%3C%2FmxCell%3E%3CmxCell%20id%3D%225%22%20value%3D%22%26lt%3Bfont%20face%3D%26quot%3BComic%20Sans%20MS%26quot%3B%26gt%3B%26lt%3Bb%26gt%3B%26lt%3Bfont%20style%3D%26quot%3Bfont-size%3A%2014px%26quot%3B%20color%3D%26quot%3B%2366ffff%26quot%3B%26gt%3BCONVENTIONS%20%26lt%3B%2Ffont%26gt%3B%3A%26lt%3B%2Fb%26gt%3B%26lt%3Bbr%26gt%3Bproduct%20quanttity%20%3A%20grammes%20ou%20mililitres%26lt%3Bbr%26gt%3Buser%20%3A%20identifiant%20unique%20pour%20pouvoir%20laisser%20l'utilisateur%20libre%20maitre%20de%20son%20nickname%26lt%3B%2Ffont%26gt%3B%22%20style%3D%22shape%3Dext%3Bdouble%3D1%3Brounded%3D0%3BwhiteSpace%3Dwrap%3Bhtml%3D1%3BfontSize%3D13%3Balign%3Dleft%3B%22%20vertex%3D%221%22%20parent%3D%221%22%3E%3CmxGeometry%20x%3D%2260%22%20y%3D%22590%22%20width%3D%22750%22%20height%3D%2280%22%20as%3D%22geometry%22%2F%3E%3C%2FmxCell%3E%3CmxCell%20id%3D%226%22%20value%3D%22%26lt%3Bfont%20face%3D%26quot%3BComic%20Sans%20MS%26quot%3B%26gt%3BR%C3%A9cup%C3%A9ration%20de%20l'API%20une%20seule%20fois%20en%20js%20et%20stockage%20du%20product%20dans%20la%20BDD%26lt%3Bbr%26gt%3BPenser%20au%20chainage%20de%20symfony%20pour%20cr%C3%A9er%20le%20product%20s'il%20n'existe%20pas%26lt%3B%2Ffont%26gt%3B%22%20style%3D%22shape%3Dext%3Bdouble%3D1%3Brounded%3D0%3BwhiteSpace%3Dwrap%3Bhtml%3D1%3BfontSize%3D13%3B%22%20vertex%3D%221%22%20parent%3D%221%22%3E%3CmxGeometry%20x%3D%2260%22%20y%3D%22690%22%20width%3D%22750%22%20height%3D%2280%22%20as%3D%22geometry%22%2F%3E%3C%2FmxCell%3E%3C%2Froot%3E%3C%2FmxGraphModel%3E&lt;/span&gt;" style="text;html=1;align=center;verticalAlign=middle;resizable=0;points=[];autosize=1;" parent="1" vertex="1">
                    <mxGeometry x="350" y="370" width="20" height="40" as="geometry"/>
                </mxCell>
                <mxCell id="35" value="" style="group" parent="1" vertex="1" connectable="0">
                    <mxGeometry x="30" y="440" width="780" height="290" as="geometry"/>
                </mxCell>
                <mxCell id="36" value="&lt;font face=&quot;Comic Sans MS&quot;&gt;&lt;br&gt;&lt;span style=&quot;font-style: normal ; letter-spacing: normal ; text-align: center ; text-indent: 0px ; text-transform: none ; word-spacing: 0px ; background-color: rgb(42 , 42 , 42) ; display: inline ; float: none&quot;&gt;&lt;font color=&quot;#66ffff&quot; style=&quot;font-size: 14px&quot;&gt;&lt;b&gt;USER&amp;nbsp;&lt;/b&gt;&lt;/font&gt;&lt;/span&gt;&lt;br style=&quot;color: rgb(240 , 240 , 240) ; font-size: 13px ; font-style: normal ; font-weight: 400 ; letter-spacing: normal ; text-align: center ; text-indent: 0px ; text-transform: none ; word-spacing: 0px ; background-color: rgb(42 , 42 , 42)&quot;&gt;&lt;span style=&quot;color: rgb(240 , 240 , 240) ; font-style: normal ; font-weight: 400 ; letter-spacing: normal ; text-align: center ; text-indent: 0px ; text-transform: none ; word-spacing: 0px ; background-color: rgb(42 , 42 , 42) ; font-size: 12px&quot;&gt;Un user à plusieurs&amp;nbsp;&lt;/span&gt;&lt;span style=&quot;color: rgb(240 , 240 , 240) ; font-style: normal ; font-weight: 400 ; letter-spacing: normal ; text-align: center ; text-indent: 0px ; text-transform: none ; word-spacing: 0px ; background-color: rgb(42 , 42 , 42) ; font-size: 12px&quot;&gt;conso&lt;/span&gt;&lt;br style=&quot;color: rgb(240 , 240 , 240) ; font-style: normal ; font-weight: 400 ; letter-spacing: normal ; text-align: center ; text-indent: 0px ; text-transform: none ; word-spacing: 0px ; background-color: rgb(42 , 42 , 42) ; font-size: 12px&quot;&gt;&lt;span style=&quot;color: rgb(240 , 240 , 240) ; font-style: normal ; font-weight: 400 ; letter-spacing: normal ; text-align: center ; text-indent: 0px ; text-transform: none ; word-spacing: 0px ; background-color: rgb(42 , 42 , 42) ; font-size: 12px&quot;&gt;Une conso&amp;nbsp;&lt;/span&gt;&lt;span style=&quot;color: rgb(240 , 240 , 240) ; font-style: normal ; font-weight: 400 ; letter-spacing: normal ; text-align: center ; text-indent: 0px ; text-transform: none ; word-spacing: 0px ; background-color: rgb(42 , 42 , 42) ; font-size: 12px&quot;&gt;à un seul user&lt;/span&gt;&lt;br style=&quot;color: rgb(240 , 240 , 240) ; font-style: normal ; font-weight: 400 ; letter-spacing: normal ; text-align: center ; text-indent: 0px ; text-transform: none ; word-spacing: 0px ; background-color: rgb(42 , 42 , 42) ; font-size: 12px&quot;&gt;&lt;span style=&quot;color: rgb(240 , 240 , 240) ; font-style: normal ; font-weight: 400 ; letter-spacing: normal ; text-align: center ; text-indent: 0px ; text-transform: none ; word-spacing: 0px ; background-color: rgb(42 , 42 , 42) ; font-size: 12px&quot;&gt;&amp;nbsp;&lt;/span&gt;&lt;/font&gt;" style="shape=ext;double=1;rounded=0;whiteSpace=wrap;html=1;fontSize=13;" parent="35" vertex="1">
                    <mxGeometry width="210" height="80" as="geometry"/>
                </mxCell>
                <mxCell id="37" value="&lt;font face=&quot;Comic Sans MS&quot;&gt;&lt;font color=&quot;#66ffff&quot; style=&quot;font-size: 14px&quot;&gt;&lt;b&gt;CONSUMPTION&lt;/b&gt;&lt;/font&gt;&lt;br&gt;&lt;span style=&quot;font-size: 12px&quot;&gt;Une consommation n'a qu'un seul&amp;nbsp;&lt;/span&gt;&lt;span style=&quot;font-size: 12px&quot;&gt;produit&lt;/span&gt;&lt;br style=&quot;font-size: 12px&quot;&gt;&lt;span style=&quot;font-size: 12px&quot;&gt;Un produit peut avoir&amp;nbsp;&lt;/span&gt;&lt;span style=&quot;font-size: 12px&quot;&gt;plusieurs consommations&lt;/span&gt;&lt;/font&gt;" style="shape=ext;double=1;rounded=0;whiteSpace=wrap;html=1;fontSize=13;" parent="35" vertex="1">
                    <mxGeometry x="240.67000000000002" width="280" height="80" as="geometry"/>
                </mxCell>
                <mxCell id="38" value="&lt;font face=&quot;Comic Sans MS&quot;&gt;&lt;font color=&quot;#66ffff&quot; style=&quot;font-size: 14px&quot;&gt;&lt;b&gt;PRODUCT&amp;nbsp;&lt;/b&gt;&lt;/font&gt;&lt;br&gt;&lt;span style=&quot;font-size: 12px&quot;&gt;Un user peut avoir plusieurs produits&lt;/span&gt;&lt;br style=&quot;font-size: 12px&quot;&gt;&lt;span style=&quot;font-size: 12px&quot;&gt;Un produit peut avoir plusieurs users&lt;/span&gt;&lt;/font&gt;" style="shape=ext;double=1;rounded=0;whiteSpace=wrap;html=1;fontSize=13;" parent="35" vertex="1">
                    <mxGeometry x="550" width="230" height="80" as="geometry"/>
                </mxCell>
                <mxCell id="39" value="&lt;font face=&quot;Comic Sans MS&quot;&gt;&lt;b&gt;&lt;font style=&quot;font-size: 14px&quot; color=&quot;#66ffff&quot;&gt;CONVENTIONS &lt;/font&gt;:&lt;/b&gt;&lt;br&gt;product quanttity : grammes ou mililitres&lt;br&gt;user : identifiant unique pour pouvoir laisser l'utilisateur libre maitre de son nickname&lt;/font&gt;" style="shape=ext;double=1;rounded=0;whiteSpace=wrap;html=1;fontSize=13;align=left;" parent="35" vertex="1">
                    <mxGeometry x="10" y="110" width="750" height="80" as="geometry"/>
                </mxCell>
                <mxCell id="40" value="&lt;font face=&quot;Comic Sans MS&quot;&gt;Récupération de l'API une seule fois en js et stockage du product dans la BDD&lt;br&gt;Penser au chainage de symfony pour créer le product s'il n'existe pas&lt;/font&gt;" style="shape=ext;double=1;rounded=0;whiteSpace=wrap;html=1;fontSize=13;" parent="35" vertex="1">
                    <mxGeometry x="10" y="210" width="750" height="80" as="geometry"/>
                </mxCell>
                <mxCell id="42" value="&lt;span style=&quot;color: rgb(240 , 240 , 240) ; font-family: &amp;#34;comic sans ms&amp;#34; ; font-size: 24px ; font-style: normal ; font-weight: 400 ; letter-spacing: normal ; text-align: center ; text-indent: 0px ; text-transform: none ; word-spacing: 0px ; background-color: rgb(42 , 42 , 42) ; display: inline ; float: none&quot;&gt;Analyse&lt;/span&gt;" style="text;whiteSpace=wrap;html=1;" parent="1" vertex="1">
                    <mxGeometry x="385" y="370" width="80" height="40" as="geometry"/>
                </mxCell>
            </root>
        </mxGraphModel>
    </diagram>
</mxfile>